<svg xmlns="http://www.w3.org/2000/svg" xmlns:bx="https://boxy-svg.com" xmlns:xlink="http://www.w3.org/1999/xlink" width="60.555" height="64" viewBox="0 0 60.555 64"><g id="logo-group" transform="matrix(0.929442, 0, 0, 0.877725, -220.04631, -305.190796)" bx:origin="0 0"><image id="container" width="480" height="480" x="272" y="144" transform="translate(0 0)" style="display:none"/><g id="logo-center" transform="translate(1.1368683772161603e-13 0)"><image id="icon_container" x="0" y="0" style="display:none"/><g id="title" transform="translate(0 0)" style="font-style:normal;font-weight:400;font-size:72px;line-height:1;font-family:'Brandmark Sans 3 Gradient';font-variant-ligatures:normal;text-align:center;text-anchor:middle"><g id="path220632" aria-label="S" transform="translate(0 319.44052) translate(236.750978095 28.883839999999992) scale(1.43) translate(-329.62344 50.112)"><circle cx="85.713" cy="116.786" r="8.493" fill="pink" stroke="pink" stroke-linejoin="miter" stroke-miterlimit="2" stroke-width="0" transform="translate(252.403849 -124.832972)"/><circle cx="86.124" cy="116.786" r="8.493" fill="#ffbfcb" stroke="#ffbfcb" stroke-linejoin="miter" stroke-miterlimit="2" stroke-width="0" transform="translate(252.403849 -124.832972)"/><circle cx="86.536" cy="116.786" r="8.493" fill="#febeca" stroke="#febeca" stroke-linejoin="miter" stroke-miterlimit="2" stroke-width="0" transform="translate(252.403849 -124.832972)"/><circle cx="86.947" cy="116.786" r="8.493" fill="#febeca" stroke="#febeca" stroke-linejoin="miter" stroke-miterlimit="2" stroke-width="0" transform="translate(252.403849 -124.832972)"/><circle cx="87.358" cy="116.786" r="8.493" fill="#fdbdca" stroke="#fdbdca" stroke-linejoin="miter" stroke-miterlimit="2" stroke-width="0" transform="translate(252.403849 -124.832972)"/><circle cx="87.77" cy="116.786" r="8.493" fill="#fdbcca" stroke="#fdbcca" stroke-linejoin="miter" stroke-miterlimit="2" stroke-width="0" transform="translate(252.403849 -124.832972)"/><circle cx="88.181" cy="116.786" r="8.493" fill="#fcbbc9" stroke="#fcbbc9" stroke-linejoin="miter" stroke-miterlimit="2" stroke-width="0" transform="translate(252.403849 -124.832972)"/><circle cx="88.592" cy="116.786" r="8.493" fill="#fcbbc9" stroke="#fcbbc9" stroke-linejoin="miter" stroke-miterlimit="2" stroke-width="0" transform="translate(252.403849 -124.832972)"/><circle cx="89.004" cy="116.786" r="8.493" fill="#fbbac9" stroke="#fbbac9" stroke-linejoin="miter" stroke-miterlimit="2" stroke-width="0" transform="translate(252.403849 -124.832972)"/><circle cx="89.415" cy="116.786" r="8.493" fill="#fbb9c8" stroke="#fbb9c8" stroke-linejoin="miter" stroke-miterlimit="2" stroke-width="0" transform="translate(252.403849 -124.832972)"/><circle cx="89.826" cy="116.786" r="8.493" fill="#fab8c8" stroke="#fab8c8" stroke-linejoin="miter" stroke-miterlimit="2" stroke-width="0" transform="translate(252.403849 -124.832972)"/><circle cx="90.238" cy="116.786" r="8.493" fill="#fab8c8" stroke="#fab8c8" stroke-linejoin="miter" stroke-miterlimit="2" stroke-width="0" transform="translate(252.403849 -124.832972)"/><circle cx="90.649" cy="116.786" r="8.493" fill="#f9b7c7" stroke="#f9b7c7" stroke-linejoin="miter" stroke-miterlimit="2" stroke-width="0" transform="translate(252.403849 -124.832972)"/><circle cx="91.061" cy="116.786" r="8.493" fill="#f9b6c7" stroke="#f9b6c7" stroke-linejoin="miter" stroke-miterlimit="2" stroke-width="0" transform="translate(252.403849 -124.832972)"/><circle cx="91.472" cy="116.786" r="8.493" fill="#f8b5c7" stroke="#f8b5c7" stroke-linejoin="miter" stroke-miterlimit="2" stroke-width="0" transform="translate(252.403849 -124.832972)"/><circle cx="91.883" cy="116.786" r="8.493" fill="#f8b5c7" stroke="#f8b5c7" stroke-linejoin="miter" stroke-miterlimit="2" stroke-width="0" transform="translate(252.403849 -124.832972)"/><circle cx="92.295" cy="116.786" r="8.493" fill="#f7b4c6" stroke="#f7b4c6" stroke-linejoin="miter" stroke-miterlimit="2" stroke-width="0" transform="translate(252.403849 -124.832972)"/><circle cx="92.706" cy="116.786" r="8.493" fill="#f7b3c6" stroke="#f7b3c6" stroke-linejoin="miter" stroke-miterlimit="2" stroke-width="0" transform="translate(252.403849 -124.832972)"/><circle cx="93.117" cy="116.786" r="8.493" fill="#f6b2c6" stroke="#f6b2c6" stroke-linejoin="miter" stroke-miterlimit="2" stroke-width="0" transform="translate(252.403849 -124.832972)"/><circle cx="93.529" cy="116.786" r="8.493" fill="#f6b2c5" stroke="#f6b2c5" stroke-linejoin="miter" stroke-miterlimit="2" stroke-width="0" transform="translate(252.403849 -124.832972)"/><circle cx="93.94" cy="116.786" r="8.493" fill="#f5b1c5" stroke="#f5b1c5" stroke-linejoin="miter" stroke-miterlimit="2" stroke-width="0" transform="translate(252.403849 -124.832972)"/><circle cx="94.351" cy="116.786" r="8.493" fill="#f5b0c5" stroke="#f5b0c5" stroke-linejoin="miter" stroke-miterlimit="2" stroke-width="0" transform="translate(252.403849 -124.832972)"/><circle cx="94.763" cy="116.786" r="8.493" fill="#f4afc5" stroke="#f4afc5" stroke-linejoin="miter" stroke-miterlimit="2" stroke-width="0" transform="translate(252.403849 -124.832972)"/><circle cx="95.174" cy="116.786" r="8.493" fill="#f4afc4" stroke="#f4afc4" stroke-linejoin="miter" stroke-miterlimit="2" stroke-width="0" transform="translate(252.403849 -124.832972)"/><circle cx="95.585" cy="116.786" r="8.493" fill="#f3aec4" stroke="#f3aec4" stroke-linejoin="miter" stroke-miterlimit="2" stroke-width="0" transform="translate(252.403849 -124.832972)"/><circle cx="95.997" cy="116.786" r="8.493" fill="#f3adc4" stroke="#f3adc4" stroke-linejoin="miter" stroke-miterlimit="2" stroke-width="0" transform="translate(252.403849 -124.832972)"/><circle cx="96.408" cy="116.786" r="8.493" fill="#f2acc3" stroke="#f2acc3" stroke-linejoin="miter" stroke-miterlimit="2" stroke-width="0" transform="translate(252.403849 -124.832972)"/><circle cx="96.819" cy="116.786" r="8.493" fill="#f2acc3" stroke="#f2acc3" stroke-linejoin="miter" stroke-miterlimit="2" stroke-width="0" transform="translate(252.403849 -124.832972)"/><circle cx="97.231" cy="116.786" r="8.493" fill="#f1abc3" stroke="#f1abc3" stroke-linejoin="miter" stroke-miterlimit="2" stroke-width="0" transform="translate(252.403849 -124.832972)"/><circle cx="97.642" cy="116.786" r="8.493" fill="#f1aac2" stroke="#f1aac2" stroke-linejoin="miter" stroke-miterlimit="2" stroke-width="0" transform="translate(252.403849 -124.832972)"/><circle cx="98.053" cy="116.786" r="8.493" fill="#f0a9c2" stroke="#f0a9c2" stroke-linejoin="miter" stroke-miterlimit="2" stroke-width="0" transform="translate(252.403849 -124.832972)"/><circle cx="98.465" cy="116.786" r="8.493" fill="#f0a9c2" stroke="#f0a9c2" stroke-linejoin="miter" stroke-miterlimit="2" stroke-width="0" transform="translate(252.403849 -124.832972)"/><circle cx="98.876" cy="116.786" r="8.493" fill="#efa8c2" stroke="#efa8c2" stroke-linejoin="miter" stroke-miterlimit="2" stroke-width="0" transform="translate(252.403849 -124.832972)"/><circle cx="99.287" cy="116.786" r="8.493" fill="#efa7c1" stroke="#efa7c1" stroke-linejoin="miter" stroke-miterlimit="2" stroke-width="0" transform="translate(252.403849 -124.832972)"/><circle cx="99.699" cy="116.786" r="8.493" fill="#eea6c1" stroke="#eea6c1" stroke-linejoin="miter" stroke-miterlimit="2" stroke-width="0" transform="translate(252.403849 -124.832972)"/><circle cx="100.11" cy="116.786" r="8.493" fill="#eea6c1" stroke="#eea6c1" stroke-linejoin="miter" stroke-miterlimit="2" stroke-width="0" transform="translate(252.403849 -124.832972)"/><circle cx="100.521" cy="116.786" r="8.493" fill="#eda5c0" stroke="#eda5c0" stroke-linejoin="miter" stroke-miterlimit="2" stroke-width="0" transform="translate(252.403849 -124.832972)"/><circle cx="100.933" cy="116.786" r="8.493" fill="#eda4c0" stroke="#eda4c0" stroke-linejoin="miter" stroke-miterlimit="2" stroke-width="0" transform="translate(252.403849 -124.832972)"/><circle cx="101.344" cy="116.786" r="8.493" fill="#eca3c0" stroke="#eca3c0" stroke-linejoin="miter" stroke-miterlimit="2" stroke-width="0" transform="translate(252.403849 -124.832972)"/><circle cx="101.755" cy="116.786" r="8.493" fill="#eca3c0" stroke="#eca3c0" stroke-linejoin="miter" stroke-miterlimit="2" stroke-width="0" transform="translate(252.403849 -124.832972)"/><circle cx="102.167" cy="116.786" r="8.493" fill="#eba2bf" stroke="#eba2bf" stroke-linejoin="miter" stroke-miterlimit="2" stroke-width="0" transform="translate(252.403849 -124.832972)"/><circle cx="102.578" cy="116.786" r="8.493" fill="#eba1bf" stroke="#eba1bf" stroke-linejoin="miter" stroke-miterlimit="2" stroke-width="0" transform="translate(252.403849 -124.832972)"/><circle cx="102.989" cy="116.786" r="8.493" fill="#eaa0bf" stroke="#eaa0bf" stroke-linejoin="miter" stroke-miterlimit="2" stroke-width="0" transform="translate(252.403849 -124.832972)"/><circle cx="103.401" cy="116.786" r="8.493" fill="#eaa0be" stroke="#eaa0be" stroke-linejoin="miter" stroke-miterlimit="2" stroke-width="0" transform="translate(252.403849 -124.832972)"/><circle cx="103.812" cy="116.786" r="8.493" fill="#e99fbe" stroke="#e99fbe" stroke-linejoin="miter" stroke-miterlimit="2" stroke-width="0" transform="translate(252.403849 -124.832972)"/><circle cx="104.223" cy="116.786" r="8.493" fill="#e99ebe" stroke="#e99ebe" stroke-linejoin="miter" stroke-miterlimit="2" stroke-width="0" transform="translate(252.403849 -124.832972)"/><circle cx="104.635" cy="116.786" r="8.493" fill="#e89dbd" stroke="#e89dbd" stroke-linejoin="miter" stroke-miterlimit="2" stroke-width="0" transform="translate(252.403849 -124.832972)"/><circle cx="105.046" cy="116.786" r="8.493" fill="#e89dbd" stroke="#e89dbd" stroke-linejoin="miter" stroke-miterlimit="2" stroke-width="0" transform="translate(252.403849 -124.832972)"/><circle cx="105.457" cy="116.786" r="8.493" fill="#e79cbd" stroke="#e79cbd" stroke-linejoin="miter" stroke-miterlimit="2" stroke-width="0" transform="translate(252.403849 -124.832972)"/><circle cx="105.869" cy="116.786" r="8.493" fill="#e79bbd" stroke="#e79bbd" stroke-linejoin="miter" stroke-miterlimit="2" stroke-width="0" transform="translate(252.403849 -124.832972)"/><circle cx="106.299" cy="116.776" r="8.493" fill="#e69abc" stroke="#e69abc" stroke-linejoin="miter" stroke-miterlimit="2" stroke-width="0" transform="translate(252.403849 -124.832972)"/><circle cx="106.725" cy="116.745" r="8.493" fill="#e69abc" stroke="#e69abc" stroke-linejoin="miter" stroke-miterlimit="2" stroke-width="0" transform="translate(252.403849 -124.832972)"/><circle cx="107.145" cy="116.693" r="8.493" fill="#e599bc" stroke="#e599bc" stroke-linejoin="miter" stroke-miterlimit="2" stroke-width="0" transform="translate(252.403849 -124.832972)"/><circle cx="107.558" cy="116.621" r="8.493" fill="#e598bb" stroke="#e598bb" stroke-linejoin="miter" stroke-miterlimit="2" stroke-width="0" transform="translate(252.403849 -124.832972)"/><circle cx="107.963" cy="116.529" r="8.493" fill="#e497bb" stroke="#e497bb" stroke-linejoin="miter" stroke-miterlimit="2" stroke-width="0" transform="translate(252.403849 -124.832972)"/><circle cx="108.362" cy="116.417" r="8.493" fill="#e497bb" stroke="#e497bb" stroke-linejoin="miter" stroke-miterlimit="2" stroke-width="0" transform="translate(252.403849 -124.832972)"/><circle cx="108.752" cy="116.287" r="8.493" fill="#e396bb" stroke="#e396bb" stroke-linejoin="miter" stroke-miterlimit="2" stroke-width="0" transform="translate(252.403849 -124.832972)"/><circle cx="109.133" cy="116.138" r="8.493" fill="#e395ba" stroke="#e395ba" stroke-linejoin="miter" stroke-miterlimit="2" stroke-width="0" transform="translate(252.403849 -124.832972)"/><circle cx="109.505" cy="115.972" r="8.493" fill="#e294ba" stroke="#e294ba" stroke-linejoin="miter" stroke-miterlimit="2" stroke-width="0" transform="translate(252.403849 -124.832972)"/><circle cx="109.867" cy="115.788" r="8.493" fill="#e294ba" stroke="#e294ba" stroke-linejoin="miter" stroke-miterlimit="2" stroke-width="0" transform="translate(252.403849 -124.832972)"/><circle cx="110.218" cy="115.587" r="8.493" fill="#e193b9" stroke="#e193b9" stroke-linejoin="miter" stroke-miterlimit="2" stroke-width="0" transform="translate(252.403849 -124.832972)"/><circle cx="110.559" cy="115.371" r="8.493" fill="#e192b9" stroke="#e192b9" stroke-linejoin="miter" stroke-miterlimit="2" stroke-width="0" transform="translate(252.403849 -124.832972)"/><circle cx="110.889" cy="115.139" r="8.493" fill="#e091b9" stroke="#e091b9" stroke-linejoin="miter" stroke-miterlimit="2" stroke-width="0" transform="translate(252.403849 -124.832972)"/><circle cx="111.206" cy="114.891" r="8.493" fill="#e091b8" stroke="#e091b8" stroke-linejoin="miter" stroke-miterlimit="2" stroke-width="0" transform="translate(252.403849 -124.832972)"/><circle cx="111.511" cy="114.629" r="8.493" fill="#df90b8" stroke="#df90b8" stroke-linejoin="miter" stroke-miterlimit="2" stroke-width="0" transform="translate(252.403849 -124.832972)"/><circle cx="111.804" cy="114.353" r="8.493" fill="#df8fb8" stroke="#df8fb8" stroke-linejoin="miter" stroke-miterlimit="2" stroke-width="0" transform="translate(252.403849 -124.832972)"/><circle cx="112.082" cy="114.063" r="8.493" fill="#de8eb8" stroke="#de8eb8" stroke-linejoin="miter" stroke-miterlimit="2" stroke-width="0" transform="translate(252.403849 -124.832972)"/><circle cx="112.347" cy="113.76" r="8.493" fill="#de8eb7" stroke="#de8eb7" stroke-linejoin="miter" stroke-miterlimit="2" stroke-width="0" transform="translate(252.403849 -124.832972)"/><circle cx="112.597" cy="113.445" r="8.493" fill="#dd8db7" stroke="#dd8db7" stroke-linejoin="miter" stroke-miterlimit="2" stroke-width="0" transform="translate(252.403849 -124.832972)"/><circle cx="112.832" cy="113.117" r="8.493" fill="#dd8cb7" stroke="#dd8cb7" stroke-linejoin="miter" stroke-miterlimit="2" stroke-width="0" transform="translate(252.403849 -124.832972)"/><circle cx="113.051" cy="112.778" r="8.493" fill="#dc8bb6" stroke="#dc8bb6" stroke-linejoin="miter" stroke-miterlimit="2" stroke-width="0" transform="translate(252.403849 -124.832972)"/><circle cx="113.255" cy="112.429" r="8.493" fill="#dc8bb6" stroke="#dc8bb6" stroke-linejoin="miter" stroke-miterlimit="2" stroke-width="0" transform="translate(252.403849 -124.832972)"/><circle cx="113.442" cy="112.068" r="8.493" fill="#db8ab6" stroke="#db8ab6" stroke-linejoin="miter" stroke-miterlimit="2" stroke-width="0" transform="translate(252.403849 -124.832972)"/><circle cx="113.611" cy="111.698" r="8.493" fill="#db89b6" stroke="#db89b6" stroke-linejoin="miter" stroke-miterlimit="2" stroke-width="0" transform="translate(252.403849 -124.832972)"/><circle cx="113.763" cy="111.319" r="8.493" fill="#da88b5" stroke="#da88b5" stroke-linejoin="miter" stroke-miterlimit="2" stroke-width="0" transform="translate(252.403849 -124.832972)"/><circle cx="113.897" cy="110.93" r="8.493" fill="#da88b5" stroke="#da88b5" stroke-linejoin="miter" stroke-miterlimit="2" stroke-width="0" transform="translate(252.403849 -124.832972)"/><circle cx="114.012" cy="110.534" r="8.493" fill="#d987b5" stroke="#d987b5" stroke-linejoin="miter" stroke-miterlimit="2" stroke-width="0" transform="translate(252.403849 -124.832972)"/><circle cx="114.107" cy="110.129" r="8.493" fill="#d986b4" stroke="#d986b4" stroke-linejoin="miter" stroke-miterlimit="2" stroke-width="0" transform="translate(252.403849 -124.832972)"/><circle cx="114.183" cy="109.717" r="8.493" fill="#d885b4" stroke="#d885b4" stroke-linejoin="miter" stroke-miterlimit="2" stroke-width="0" transform="translate(252.403849 -124.832972)"/><circle cx="114.239" cy="109.299" r="8.493" fill="#d885b4" stroke="#d885b4" stroke-linejoin="miter" stroke-miterlimit="2" stroke-width="0" transform="translate(252.403849 -124.832972)"/><circle cx="114.273" cy="108.874" r="8.493" fill="#d784b3" stroke="#d784b3" stroke-linejoin="miter" stroke-miterlimit="2" stroke-width="0" transform="translate(252.403849 -124.832972)"/><circle cx="114.287" cy="108.443" r="8.493" fill="#d783b3" stroke="#d783b3" stroke-linejoin="miter" stroke-miterlimit="2" stroke-width="0" transform="translate(252.403849 -124.832972)"/><circle cx="114.278" cy="108.012" r="8.493" fill="#d682b3" stroke="#d682b3" stroke-linejoin="miter" stroke-miterlimit="2" stroke-width="0" transform="translate(252.403849 -124.832972)"/><circle cx="114.249" cy="107.585" r="8.493" fill="#d682b3" stroke="#d682b3" stroke-linejoin="miter" stroke-miterlimit="2" stroke-width="0" transform="translate(252.403849 -124.832972)"/><circle cx="114.198" cy="107.165" r="8.493" fill="#d581b2" stroke="#d581b2" stroke-linejoin="miter" stroke-miterlimit="2" stroke-width="0" transform="translate(252.403849 -124.832972)"/><circle cx="114.127" cy="106.752" r="8.493" fill="#d580b2" stroke="#d580b2" stroke-linejoin="miter" stroke-miterlimit="2" stroke-width="0" transform="translate(252.403849 -124.832972)"/><circle cx="114.036" cy="106.345" r="8.493" fill="#d47fb2" stroke="#d47fb2" stroke-linejoin="miter" stroke-miterlimit="2" stroke-width="0" transform="translate(252.403849 -124.832972)"/><circle cx="113.925" cy="105.947" r="8.493" fill="#d47eb1" stroke="#d47eb1" stroke-linejoin="miter" stroke-miterlimit="2" stroke-width="0" transform="translate(252.403849 -124.832972)"/><circle cx="113.796" cy="105.556" r="8.493" fill="#d37eb1" stroke="#d37eb1" stroke-linejoin="miter" stroke-miterlimit="2" stroke-width="0" transform="translate(252.403849 -124.832972)"/><circle cx="113.648" cy="105.175" r="8.493" fill="#d37db1" stroke="#d37db1" stroke-linejoin="miter" stroke-miterlimit="2" stroke-width="0" transform="translate(252.403849 -124.832972)"/><circle cx="113.483" cy="104.802" r="0" fill="#d27cb1" stroke="#d27cb1" stroke-linejoin="miter" stroke-miterlimit="2" stroke-width="0" transform="translate(252.403849 -124.832972)"/><circle cx="113.3" cy="104.44" r="8.493" fill="#d27bb0" stroke="#d27bb0" stroke-linejoin="miter" stroke-miterlimit="2" stroke-width="0" transform="translate(252.403849 -124.832972)"/><circle cx="113.101" cy="104.087" r="8.493" fill="#d17bb0" stroke="#d17bb0" stroke-linejoin="miter" stroke-miterlimit="2" stroke-width="0" transform="translate(252.403849 -124.832972)"/><circle cx="112.885" cy="103.746" r="8.493" fill="#d17ab0" stroke="#d17ab0" stroke-linejoin="miter" stroke-miterlimit="2" stroke-width="0" transform="translate(252.403849 -124.832972)"/><circle cx="112.654" cy="103.416" r="8.493" fill="#d079af" stroke="#d079af" stroke-linejoin="miter" stroke-miterlimit="2" stroke-width="0" transform="translate(252.403849 -124.832972)"/><circle cx="112.407" cy="103.097" r="8.493" fill="#d078af" stroke="#d078af" stroke-linejoin="miter" stroke-miterlimit="2" stroke-width="0" transform="translate(252.403849 -124.832972)"/><circle cx="112.146" cy="102.792" r="8.493" fill="#cf78af" stroke="#cf78af" stroke-linejoin="miter" stroke-miterlimit="2" stroke-width="0" transform="translate(252.403849 -124.832972)"/><circle cx="111.87" cy="102.499" r="8.493" fill="#cf77ae" stroke="#cf77ae" stroke-linejoin="miter" stroke-miterlimit="2" stroke-width="0" transform="translate(252.403849 -124.832972)"/><circle cx="111.581" cy="102.219" r="8.493" fill="#ce76ae" stroke="#ce76ae" stroke-linejoin="miter" stroke-miterlimit="2" stroke-width="0" transform="translate(252.403849 -124.832972)"/><circle cx="111.279" cy="101.954" r="8.493" fill="#ce75ae" stroke="#ce75ae" stroke-linejoin="miter" stroke-miterlimit="2" stroke-width="0" transform="translate(252.403849 -124.832972)"/><circle cx="110.964" cy="101.703" r="8.493" fill="#cd75ae" stroke="#cd75ae" stroke-linejoin="miter" stroke-miterlimit="2" stroke-width="0" transform="translate(252.403849 -124.832972)"/><circle cx="110.638" cy="101.467" r="8.493" fill="#cd74ad" stroke="#cd74ad" stroke-linejoin="miter" stroke-miterlimit="2" stroke-width="0" transform="translate(252.403849 -124.832972)"/><circle cx="110.299" cy="101.247" r="8.493" fill="#cc73ad" stroke="#cc73ad" stroke-linejoin="miter" stroke-miterlimit="2" stroke-width="0" transform="translate(252.403849 -124.832972)"/><circle cx="109.95" cy="101.042" r="8.493" fill="#cc72ad" stroke="#cc72ad" stroke-linejoin="miter" stroke-miterlimit="2" stroke-width="0" transform="translate(252.403849 -124.832972)"/><circle cx="109.591" cy="100.855" r="8.493" fill="#cb72ac" stroke="#cb72ac" stroke-linejoin="miter" stroke-miterlimit="2" stroke-width="0" transform="translate(252.403849 -124.832972)"/><circle cx="109.221" cy="100.684" r="8.493" fill="#cb71ac" stroke="#cb71ac" stroke-linejoin="miter" stroke-miterlimit="2" stroke-width="0" transform="translate(252.403849 -124.832972)"/><circle cx="108.842" cy="100.531" r="8.493" fill="#ca70ac" stroke="#ca70ac" stroke-linejoin="miter" stroke-miterlimit="2" stroke-width="0" transform="translate(252.403849 -124.832972)"/><circle cx="108.454" cy="100.396" r="8.493" fill="#ca6fac" stroke="#ca6fac" stroke-linejoin="miter" stroke-miterlimit="2" stroke-width="0" transform="translate(252.403849 -124.832972)"/><circle cx="108.058" cy="100.28" r="8.493" fill="#c96fab" stroke="#c96fab" stroke-linejoin="miter" stroke-miterlimit="2" stroke-width="0" transform="translate(252.403849 -124.832972)"/><circle cx="107.654" cy="100.184" r="8.493" fill="#c96eab" stroke="#c96eab" stroke-linejoin="miter" stroke-miterlimit="2" stroke-width="0" transform="translate(252.403849 -124.832972)"/><circle cx="107.242" cy="100.107" r="8.493" fill="#c86dab" stroke="#c86dab" stroke-linejoin="miter" stroke-miterlimit="2" stroke-width="0" transform="translate(252.403849 -124.832972)"/><circle cx="106.824" cy="100.05" r="8.493" fill="#c86caa" stroke="#c86caa" stroke-linejoin="miter" stroke-miterlimit="2" stroke-width="0" transform="translate(252.403849 -124.832972)"/><circle cx="106.399" cy="100.014" r="8.493" fill="#c76caa" stroke="#c76caa" stroke-linejoin="miter" stroke-miterlimit="2" stroke-width="0" transform="translate(252.403849 -124.832972)"/><circle cx="105.969" cy="99.999" r="8.493" fill="#c76baa" stroke="#c76baa" stroke-linejoin="miter" stroke-miterlimit="2" stroke-width="0" transform="translate(252.403849 -124.832972)"/><circle cx="105.554" cy="99.999" r="8.493" fill="#c66aa9" stroke="#c66aa9" stroke-linejoin="miter" stroke-miterlimit="2" stroke-width="0" transform="translate(252.403849 -124.832972)"/><circle cx="105.143" cy="99.999" r="8.493" fill="#c669a9" stroke="#c669a9" stroke-linejoin="miter" stroke-miterlimit="2" stroke-width="0" transform="translate(252.403849 -124.832972)"/><circle cx="104.731" cy="99.999" r="8.493" fill="#c569a9" stroke="#c569a9" stroke-linejoin="miter" stroke-miterlimit="2" stroke-width="0" transform="translate(252.403849 -124.832972)"/><circle cx="104.32" cy="99.999" r="8.493" fill="#c568a9" stroke="#c568a9" stroke-linejoin="miter" stroke-miterlimit="2" stroke-width="0" transform="translate(252.403849 -124.832972)"/><circle cx="103.909" cy="99.999" r="8.493" fill="#c467a8" stroke="#c467a8" stroke-linejoin="miter" stroke-miterlimit="2" stroke-width="0" transform="translate(252.403849 -124.832972)"/><circle cx="103.497" cy="99.999" r="8.493" fill="#c466a8" stroke="#c466a8" stroke-linejoin="miter" stroke-miterlimit="2" stroke-width="0" transform="translate(252.403849 -124.832972)"/><circle cx="103.086" cy="99.999" r="8.493" fill="#c366a8" stroke="#c366a8" stroke-linejoin="miter" stroke-miterlimit="2" stroke-width="0" transform="translate(252.403849 -124.832972)"/><circle cx="102.675" cy="99.999" r="8.493" fill="#c365a7" stroke="#c365a7" stroke-linejoin="miter" stroke-miterlimit="2" stroke-width="0" transform="translate(252.403849 -124.832972)"/><circle cx="102.263" cy="99.999" r="8.493" fill="#c264a7" stroke="#c264a7" stroke-linejoin="miter" stroke-miterlimit="2" stroke-width="0" transform="translate(252.403849 -124.832972)"/><circle cx="101.852" cy="99.999" r="8.493" fill="#c263a7" stroke="#c263a7" stroke-linejoin="miter" stroke-miterlimit="2" stroke-width="0" transform="translate(252.403849 -124.832972)"/><circle cx="101.441" cy="99.999" r="8.493" fill="#c163a7" stroke="#c163a7" stroke-linejoin="miter" stroke-miterlimit="2" stroke-width="0" transform="translate(252.403849 -124.832972)"/><circle cx="101.029" cy="99.999" r="8.493" fill="#c162a6" stroke="#c162a6" stroke-linejoin="miter" stroke-miterlimit="2" stroke-width="0" transform="translate(252.403849 -124.832972)"/><circle cx="100.618" cy="99.999" r="8.493" fill="#c061a6" stroke="#c061a6" stroke-linejoin="miter" stroke-miterlimit="2" stroke-width="0" transform="translate(252.403849 -124.832972)"/><circle cx="100.207" cy="99.999" r="8.493" fill="#c060a6" stroke="#c060a6" stroke-linejoin="miter" stroke-miterlimit="2" stroke-width="0" transform="translate(252.403849 -124.832972)"/><circle cx="99.795" cy="99.999" r="8.493" fill="#bf60a5" stroke="#bf60a5" stroke-linejoin="miter" stroke-miterlimit="2" stroke-width="0" transform="translate(252.403849 -124.832972)"/><circle cx="99.384" cy="99.999" r="8.493" fill="#bf5fa5" stroke="#bf5fa5" stroke-linejoin="miter" stroke-miterlimit="2" stroke-width="0" transform="translate(252.403849 -124.832972)"/><circle cx="98.973" cy="99.999" r="8.493" fill="#be5ea5" stroke="#be5ea5" stroke-linejoin="miter" stroke-miterlimit="2" stroke-width="0" transform="translate(252.403849 -124.832972)"/><circle cx="98.561" cy="99.999" r="8.493" fill="#be5da4" stroke="#be5da4" stroke-linejoin="miter" stroke-miterlimit="2" stroke-width="0" transform="translate(252.403849 -124.832972)"/><circle cx="98.15" cy="99.999" r="8.493" fill="#bd5da4" stroke="#bd5da4" stroke-linejoin="miter" stroke-miterlimit="2" stroke-width="0" transform="translate(252.403849 -124.832972)"/><circle cx="97.739" cy="99.999" r="8.493" fill="#bd5ca4" stroke="#bd5ca4" stroke-linejoin="miter" stroke-miterlimit="2" stroke-width="0" transform="translate(252.403849 -124.832972)"/><circle cx="97.327" cy="99.999" r="8.493" fill="#bc5ba4" stroke="#bc5ba4" stroke-linejoin="miter" stroke-miterlimit="2" stroke-width="0" transform="translate(252.403849 -124.832972)"/><circle cx="96.916" cy="99.999" r="8.493" fill="#bc5aa3" stroke="#bc5aa3" stroke-linejoin="miter" stroke-miterlimit="2" stroke-width="0" transform="translate(252.403849 -124.832972)"/><circle cx="96.505" cy="99.999" r="8.493" fill="#bb5aa3" stroke="#bb5aa3" stroke-linejoin="miter" stroke-miterlimit="2" stroke-width="0" transform="translate(252.403849 -124.832972)"/><circle cx="96.093" cy="99.999" r="8.493" fill="#bb59a3" stroke="#bb59a3" stroke-linejoin="miter" stroke-miterlimit="2" stroke-width="0" transform="translate(252.403849 -124.832972)"/><circle cx="95.682" cy="99.999" r="8.493" fill="#ba58a2" stroke="#ba58a2" stroke-linejoin="miter" stroke-miterlimit="2" stroke-width="0" transform="translate(252.403849 -124.832972)"/><circle cx="95.271" cy="99.999" r="8.493" fill="#ba57a2" stroke="#ba57a2" stroke-linejoin="miter" stroke-miterlimit="2" stroke-width="0" transform="translate(252.403849 -124.832972)"/><circle cx="94.859" cy="99.999" r="8.493" fill="#b957a2" stroke="#b957a2" stroke-linejoin="miter" stroke-miterlimit="2" stroke-width="0" transform="translate(252.403849 -124.832972)"/><circle cx="94.448" cy="99.999" r="8.493" fill="#b956a2" stroke="#b956a2" stroke-linejoin="miter" stroke-miterlimit="2" stroke-width="0" transform="translate(252.403849 -124.832972)"/><circle cx="94.033" cy="99.999" r="8.493" fill="#b855a1" stroke="#b855a1" stroke-linejoin="miter" stroke-miterlimit="2" stroke-width="0" transform="translate(252.403849 -124.832972)"/><circle cx="93.603" cy="99.984" r="8.493" fill="#b854a1" stroke="#b854a1" stroke-linejoin="miter" stroke-miterlimit="2" stroke-width="0" transform="translate(252.403849 -124.832972)"/><circle cx="93.178" cy="99.948" r="8.493" fill="#b754a1" stroke="#b754a1" stroke-linejoin="miter" stroke-miterlimit="2" stroke-width="0" transform="translate(252.403849 -124.832972)"/><circle cx="92.76" cy="99.892" r="8.493" fill="#b753a0" stroke="#b753a0" stroke-linejoin="miter" stroke-miterlimit="2" stroke-width="0" transform="translate(252.403849 -124.832972)"/><circle cx="92.348" cy="99.815" r="8.493" fill="#b652a0" stroke="#b652a0" stroke-linejoin="miter" stroke-miterlimit="2" stroke-width="0" transform="translate(252.403849 -124.832972)"/><circle cx="91.944" cy="99.718" r="8.493" fill="#b651a0" stroke="#b651a0" stroke-linejoin="miter" stroke-miterlimit="2" stroke-width="0" transform="translate(252.403849 -124.832972)"/><circle cx="91.548" cy="99.602" r="8.493" fill="#b5519f" stroke="#b5519f" stroke-linejoin="miter" stroke-miterlimit="2" stroke-width="0" transform="translate(252.403849 -124.832972)"/><circle cx="91.16" cy="99.468" r="8.493" fill="#b5509f" stroke="#b5509f" stroke-linejoin="miter" stroke-miterlimit="2" stroke-width="0" transform="translate(252.403849 -124.832972)"/><circle cx="90.781" cy="99.315" r="8.493" fill="#b44f9f" stroke="#b44f9f" stroke-linejoin="miter" stroke-miterlimit="2" stroke-width="0" transform="translate(252.403849 -124.832972)"/><circle cx="90.411" cy="99.144" r="8.493" fill="#b44e9f" stroke="#b44e9f" stroke-linejoin="miter" stroke-miterlimit="2" stroke-width="0" transform="translate(252.403849 -124.832972)"/><circle cx="90.051" cy="98.957" r="8.493" fill="#b34e9e" stroke="#b34e9e" stroke-linejoin="miter" stroke-miterlimit="2" stroke-width="0" transform="translate(252.403849 -124.832972)"/><circle cx="89.702" cy="98.753" r="8.493" fill="#b34d9e" stroke="#b34d9e" stroke-linejoin="miter" stroke-miterlimit="2" stroke-width="0" transform="translate(252.403849 -124.832972)"/><circle cx="89.364" cy="98.532" r="8.493" fill="#b24c9e" stroke="#b24c9e" stroke-linejoin="miter" stroke-miterlimit="2" stroke-width="0" transform="translate(252.403849 -124.832972)"/><circle cx="89.037" cy="98.296" r="8.493" fill="#b24b9d" stroke="#b24b9d" stroke-linejoin="miter" stroke-miterlimit="2" stroke-width="0" transform="translate(252.403849 -124.832972)"/><circle cx="88.722" cy="98.045" r="8.493" fill="#b14b9d" stroke="#b14b9d" stroke-linejoin="miter" stroke-miterlimit="2" stroke-width="0" transform="translate(252.403849 -124.832972)"/><circle cx="88.42" cy="97.78" r="8.493" fill="#b14a9d" stroke="#b14a9d" stroke-linejoin="miter" stroke-miterlimit="2" stroke-width="0" transform="translate(252.403849 -124.832972)"/><circle cx="88.131" cy="97.501" r="8.493" fill="#b0499d" stroke="#b0499d" stroke-linejoin="miter" stroke-miterlimit="2" stroke-width="0" transform="translate(252.403849 -124.832972)"/><circle cx="87.856" cy="97.208" r="8.493" fill="#b0489c" stroke="#b0489c" stroke-linejoin="miter" stroke-miterlimit="2" stroke-width="0" transform="translate(252.403849 -124.832972)"/><circle cx="87.594" cy="96.902" r="8.493" fill="#af489c" stroke="#af489c" stroke-linejoin="miter" stroke-miterlimit="2" stroke-width="0" transform="translate(252.403849 -124.832972)"/><circle cx="87.348" cy="96.584" r="8.493" fill="#af479c" stroke="#af479c" stroke-linejoin="miter" stroke-miterlimit="2" stroke-width="0" transform="translate(252.403849 -124.832972)"/><circle cx="87.116" cy="96.254" r="8.493" fill="#ae469b" stroke="#ae469b" stroke-linejoin="miter" stroke-miterlimit="2" stroke-width="0" transform="translate(252.403849 -124.832972)"/><circle cx="86.9" cy="95.912" r="8.493" fill="#ae459b" stroke="#ae459b" stroke-linejoin="miter" stroke-miterlimit="2" stroke-width="0" transform="translate(252.403849 -124.832972)"/><circle cx="86.701" cy="95.56" r="8.493" fill="#ad459b" stroke="#ad459b" stroke-linejoin="miter" stroke-miterlimit="2" stroke-width="0" transform="translate(252.403849 -124.832972)"/><circle cx="86.518" cy="95.198" r="8.493" fill="#ad449a" stroke="#ad449a" stroke-linejoin="miter" stroke-miterlimit="2" stroke-width="0" transform="translate(252.403849 -124.832972)"/><circle cx="86.352" cy="94.825" r="8.493" fill="#ac439a" stroke="#ac439a" stroke-linejoin="miter" stroke-miterlimit="2" stroke-width="0" transform="translate(252.403849 -124.832972)"/><circle cx="86.205" cy="94.444" r="8.493" fill="#ac429a" stroke="#ac429a" stroke-linejoin="miter" stroke-miterlimit="2" stroke-width="0" transform="translate(252.403849 -124.832972)"/><circle cx="86.075" cy="94.053" r="8.493" fill="#ab429a" stroke="#ab429a" stroke-linejoin="miter" stroke-miterlimit="2" stroke-width="0" transform="translate(252.403849 -124.832972)"/><circle cx="85.965" cy="93.655" r="8.493" fill="#ab4199" stroke="#ab4199" stroke-linejoin="miter" stroke-miterlimit="2" stroke-width="0" transform="translate(252.403849 -124.832972)"/><circle cx="85.874" cy="93.248" r="8.493" fill="#aa4099" stroke="#aa4099" stroke-linejoin="miter" stroke-miterlimit="2" stroke-width="0" transform="translate(252.403849 -124.832972)"/><circle cx="85.802" cy="92.835" r="8.493" fill="#aa3f99" stroke="#aa3f99" stroke-linejoin="miter" stroke-miterlimit="2" stroke-width="0" transform="translate(252.403849 -124.832972)"/><circle cx="85.751" cy="92.415" r="8.493" fill="#a93e98" stroke="#a93e98" stroke-linejoin="miter" stroke-miterlimit="2" stroke-width="0" transform="translate(252.403849 -124.832972)"/><circle cx="85.722" cy="91.989" r="8.493" fill="#a93e98" stroke="#a93e98" stroke-linejoin="miter" stroke-miterlimit="2" stroke-width="0" transform="translate(252.403849 -124.832972)"/><circle cx="85.713" cy="91.557" r="8.493" fill="#a83d98" stroke="#a83d98" stroke-linejoin="miter" stroke-miterlimit="2" stroke-width="0" transform="translate(252.403849 -124.832972)"/><circle cx="85.727" cy="91.126" r="8.493" fill="#a83c98" stroke="#a83c98" stroke-linejoin="miter" stroke-miterlimit="2" stroke-width="0" transform="translate(252.403849 -124.832972)"/><circle cx="85.761" cy="90.701" r="8.493" fill="#a73b97" stroke="#a73b97" stroke-linejoin="miter" stroke-miterlimit="2" stroke-width="0" transform="translate(252.403849 -124.832972)"/><circle cx="85.817" cy="90.283" r="8.493" fill="#a73b97" stroke="#a73b97" stroke-linejoin="miter" stroke-miterlimit="2" stroke-width="0" transform="translate(252.403849 -124.832972)"/><circle cx="85.893" cy="89.871" r="8.493" fill="#a63a97" stroke="#a63a97" stroke-linejoin="miter" stroke-miterlimit="2" stroke-width="0" transform="translate(252.403849 -124.832972)"/><circle cx="85.988" cy="89.466" r="8.493" fill="#a63996" stroke="#a63996" stroke-linejoin="miter" stroke-miterlimit="2" stroke-width="0" transform="translate(252.403849 -124.832972)"/><circle cx="86.103" cy="89.07" r="8.493" fill="#a53896" stroke="#a53896" stroke-linejoin="miter" stroke-miterlimit="2" stroke-width="0" transform="translate(252.403849 -124.832972)"/><circle cx="86.237" cy="88.681" r="8.493" fill="#a53896" stroke="#a53896" stroke-linejoin="miter" stroke-miterlimit="2" stroke-width="0" transform="translate(252.403849 -124.832972)"/><circle cx="86.389" cy="88.302" r="8.493" fill="#a43795" stroke="#a43795" stroke-linejoin="miter" stroke-miterlimit="2" stroke-width="0" transform="translate(252.403849 -124.832972)"/><circle cx="86.558" cy="87.932" r="8.493" fill="#a43695" stroke="#a43695" stroke-linejoin="miter" stroke-miterlimit="2" stroke-width="0" transform="translate(252.403849 -124.832972)"/><circle cx="86.745" cy="87.571" r="8.493" fill="#a33595" stroke="#a33595" stroke-linejoin="miter" stroke-miterlimit="2" stroke-width="0" transform="translate(252.403849 -124.832972)"/><circle cx="86.949" cy="87.222" r="8.493" fill="#a33595" stroke="#a33595" stroke-linejoin="miter" stroke-miterlimit="2" stroke-width="0" transform="translate(252.403849 -124.832972)"/><circle cx="87.168" cy="86.883" r="8.493" fill="#a23494" stroke="#a23494" stroke-linejoin="miter" stroke-miterlimit="2" stroke-width="0" transform="translate(252.403849 -124.832972)"/><circle cx="87.403" cy="86.555" r="8.493" fill="#a23394" stroke="#a23394" stroke-linejoin="miter" stroke-miterlimit="2" stroke-width="0" transform="translate(252.403849 -124.832972)"/><circle cx="87.653" cy="86.24" r="8.493" fill="#a13294" stroke="#a13294" stroke-linejoin="miter" stroke-miterlimit="2" stroke-width="0" transform="translate(252.403849 -124.832972)"/><circle cx="87.918" cy="85.937" r="8.493" fill="#a13293" stroke="#a13293" stroke-linejoin="miter" stroke-miterlimit="2" stroke-width="0" transform="translate(252.403849 -124.832972)"/><circle cx="88.196" cy="85.647" r="8.493" fill="#a03193" stroke="#a03193" stroke-linejoin="miter" stroke-miterlimit="2" stroke-width="0" transform="translate(252.403849 -124.832972)"/><circle cx="88.489" cy="85.371" r="8.493" fill="#a03093" stroke="#a03093" stroke-linejoin="miter" stroke-miterlimit="2" stroke-width="0" transform="translate(252.403849 -124.832972)"/><circle cx="88.794" cy="85.109" r="8.493" fill="#9f2f93" stroke="#9f2f93" stroke-linejoin="miter" stroke-miterlimit="2" stroke-width="0" transform="translate(252.403849 -124.832972)"/><circle cx="89.111" cy="84.861" r="8.493" fill="#9f2f92" stroke="#9f2f92" stroke-linejoin="miter" stroke-miterlimit="2" stroke-width="0" transform="translate(252.403849 -124.832972)"/><circle cx="89.441" cy="84.629" r="8.493" fill="#9e2e92" stroke="#9e2e92" stroke-linejoin="miter" stroke-miterlimit="2" stroke-width="0" transform="translate(252.403849 -124.832972)"/><circle cx="89.782" cy="84.413" r="8.493" fill="#9e2d92" stroke="#9e2d92" stroke-linejoin="miter" stroke-miterlimit="2" stroke-width="0" transform="translate(252.403849 -124.832972)"/><circle cx="90.133" cy="84.212" r="8.493" fill="#9d2c91" stroke="#9d2c91" stroke-linejoin="miter" stroke-miterlimit="2" stroke-width="0" transform="translate(252.403849 -124.832972)"/><circle cx="90.495" cy="84.028" r="8.493" fill="#9d2c91" stroke="#9d2c91" stroke-linejoin="miter" stroke-miterlimit="2" stroke-width="0" transform="translate(252.403849 -124.832972)"/><circle cx="90.867" cy="83.862" r="8.493" fill="#9c2b91" stroke="#9c2b91" stroke-linejoin="miter" stroke-miterlimit="2" stroke-width="0" transform="translate(252.403849 -124.832972)"/><circle cx="91.248" cy="83.713" r="8.493" fill="#9c2a90" stroke="#9c2a90" stroke-linejoin="miter" stroke-miterlimit="2" stroke-width="0" transform="translate(252.403849 -124.832972)"/><circle cx="91.638" cy="83.583" r="8.493" fill="#9b2990" stroke="#9b2990" stroke-linejoin="miter" stroke-miterlimit="2" stroke-width="0" transform="translate(252.403849 -124.832972)"/><circle cx="92.037" cy="83.471" r="8.493" fill="#9b2990" stroke="#9b2990" stroke-linejoin="miter" stroke-miterlimit="2" stroke-width="0" transform="translate(252.403849 -124.832972)"/><circle cx="92.442" cy="83.379" r="8.493" fill="#9a2890" stroke="#9a2890" stroke-linejoin="miter" stroke-miterlimit="2" stroke-width="0" transform="translate(252.403849 -124.832972)"/><circle cx="92.855" cy="83.307" r="8.493" fill="#9a278f" stroke="#9a278f" stroke-linejoin="miter" stroke-miterlimit="2" stroke-width="0" transform="translate(252.403849 -124.832972)"/><circle cx="93.275" cy="83.255" r="8.493" fill="#99268f" stroke="#99268f" stroke-linejoin="miter" stroke-miterlimit="2" stroke-width="0" transform="translate(252.403849 -124.832972)"/><circle cx="93.701" cy="83.224" r="8.493" fill="#99268f" stroke="#99268f" stroke-linejoin="miter" stroke-miterlimit="2" stroke-width="0" transform="translate(252.403849 -124.832972)"/><circle cx="94.131" cy="83.214" r="8.493" fill="#98258e" stroke="#98258e" stroke-linejoin="miter" stroke-miterlimit="2" stroke-width="0" transform="translate(252.403849 -124.832972)"/><circle cx="94.543" cy="83.214" r="8.493" fill="#98248e" stroke="#98248e" stroke-linejoin="miter" stroke-miterlimit="2" stroke-width="0" transform="translate(252.403849 -124.832972)"/><circle cx="94.954" cy="83.214" r="8.493" fill="#97238e" stroke="#97238e" stroke-linejoin="miter" stroke-miterlimit="2" stroke-width="0" transform="translate(252.403849 -124.832972)"/><circle cx="95.365" cy="83.214" r="8.493" fill="#97238e" stroke="#97238e" stroke-linejoin="miter" stroke-miterlimit="2" stroke-width="0" transform="translate(252.403849 -124.832972)"/><circle cx="95.777" cy="83.214" r="8.493" fill="#96228d" stroke="#96228d" stroke-linejoin="miter" stroke-miterlimit="2" stroke-width="0" transform="translate(252.403849 -124.832972)"/><circle cx="96.188" cy="83.214" r="8.493" fill="#96218d" stroke="#96218d" stroke-linejoin="miter" stroke-miterlimit="2" stroke-width="0" transform="translate(252.403849 -124.832972)"/><circle cx="96.599" cy="83.214" r="8.493" fill="#95208d" stroke="#95208d" stroke-linejoin="miter" stroke-miterlimit="2" stroke-width="0" transform="translate(252.403849 -124.832972)"/><circle cx="97.011" cy="83.214" r="8.493" fill="#95208c" stroke="#95208c" stroke-linejoin="miter" stroke-miterlimit="2" stroke-width="0" transform="translate(252.403849 -124.832972)"/><circle cx="97.422" cy="83.214" r="8.493" fill="#941f8c" stroke="#941f8c" stroke-linejoin="miter" stroke-miterlimit="2" stroke-width="0" transform="translate(252.403849 -124.832972)"/><circle cx="97.833" cy="83.214" r="8.493" fill="#941e8c" stroke="#941e8c" stroke-linejoin="miter" stroke-miterlimit="2" stroke-width="0" transform="translate(252.403849 -124.832972)"/><circle cx="98.245" cy="83.214" r="8.493" fill="#931d8b" stroke="#931d8b" stroke-linejoin="miter" stroke-miterlimit="2" stroke-width="0" transform="translate(252.403849 -124.832972)"/><circle cx="98.656" cy="83.214" r="8.493" fill="#931d8b" stroke="#931d8b" stroke-linejoin="miter" stroke-miterlimit="2" stroke-width="0" transform="translate(252.403849 -124.832972)"/><circle cx="99.067" cy="83.214" r="8.493" fill="#921c8b" stroke="#921c8b" stroke-linejoin="miter" stroke-miterlimit="2" stroke-width="0" transform="translate(252.403849 -124.832972)"/><circle cx="99.479" cy="83.214" r="8.493" fill="#921b8b" stroke="#921b8b" stroke-linejoin="miter" stroke-miterlimit="2" stroke-width="0" transform="translate(252.403849 -124.832972)"/><circle cx="99.89" cy="83.214" r="8.493" fill="#911a8a" stroke="#911a8a" stroke-linejoin="miter" stroke-miterlimit="2" stroke-width="0" transform="translate(252.403849 -124.832972)"/><circle cx="100.301" cy="83.214" r="8.493" fill="#911a8a" stroke="#911a8a" stroke-linejoin="miter" stroke-miterlimit="2" stroke-width="0" transform="translate(252.403849 -124.832972)"/><circle cx="100.713" cy="83.214" r="8.493" fill="#90198a" stroke="#90198a" stroke-linejoin="miter" stroke-miterlimit="2" stroke-width="0" transform="translate(252.403849 -124.832972)"/><circle cx="101.124" cy="83.214" r="8.493" fill="#901889" stroke="#901889" stroke-linejoin="miter" stroke-miterlimit="2" stroke-width="0" transform="translate(252.403849 -124.832972)"/><circle cx="101.535" cy="83.214" r="8.493" fill="#8f1789" stroke="#8f1789" stroke-linejoin="miter" stroke-miterlimit="2" stroke-width="0" transform="translate(252.403849 -124.832972)"/><circle cx="101.947" cy="83.214" r="8.493" fill="#8f1789" stroke="#8f1789" stroke-linejoin="miter" stroke-miterlimit="2" stroke-width="0" transform="translate(252.403849 -124.832972)"/><circle cx="102.358" cy="83.214" r="8.493" fill="#8e1689" stroke="#8e1689" stroke-linejoin="miter" stroke-miterlimit="2" stroke-width="0" transform="translate(252.403849 -124.832972)"/><circle cx="102.769" cy="83.214" r="8.493" fill="#8e1588" stroke="#8e1588" stroke-linejoin="miter" stroke-miterlimit="2" stroke-width="0" transform="translate(252.403849 -124.832972)"/><circle cx="103.181" cy="83.214" r="8.493" fill="#8d1488" stroke="#8d1488" stroke-linejoin="miter" stroke-miterlimit="2" stroke-width="0" transform="translate(252.403849 -124.832972)"/><circle cx="103.592" cy="83.214" r="8.493" fill="#8d1488" stroke="#8d1488" stroke-linejoin="miter" stroke-miterlimit="2" stroke-width="0" transform="translate(252.403849 -124.832972)"/><circle cx="104.003" cy="83.214" r="8.493" fill="#8c1387" stroke="#8c1387" stroke-linejoin="miter" stroke-miterlimit="2" stroke-width="0" transform="translate(252.403849 -124.832972)"/><circle cx="104.415" cy="83.214" r="8.493" fill="#8c1287" stroke="#8c1287" stroke-linejoin="miter" stroke-miterlimit="2" stroke-width="0" transform="translate(252.403849 -124.832972)"/><circle cx="104.826" cy="83.214" r="8.493" fill="#8b1187" stroke="#8b1187" stroke-linejoin="miter" stroke-miterlimit="2" stroke-width="0" transform="translate(252.403849 -124.832972)"/><circle cx="105.237" cy="83.214" r="8.493" fill="#8b1186" stroke="#8b1186" stroke-linejoin="miter" stroke-miterlimit="2" stroke-width="0" transform="translate(252.403849 -124.832972)"/><circle cx="105.649" cy="83.214" r="8.493" fill="#8a1086" stroke="#8a1086" stroke-linejoin="miter" stroke-miterlimit="2" stroke-width="0" transform="translate(252.403849 -124.832972)"/><circle cx="106.06" cy="83.214" r="8.493" fill="#8a0f86" stroke="#8a0f86" stroke-linejoin="miter" stroke-miterlimit="2" stroke-width="0" transform="translate(252.403849 -124.832972)"/><circle cx="106.471" cy="83.214" r="8.493" fill="#890e86" stroke="#890e86" stroke-linejoin="miter" stroke-miterlimit="2" stroke-width="0" transform="translate(252.403849 -124.832972)"/><circle cx="106.883" cy="83.214" r="8.493" fill="#890e85" stroke="#890e85" stroke-linejoin="miter" stroke-miterlimit="2" stroke-width="0" transform="translate(252.403849 -124.832972)"/><circle cx="107.294" cy="83.214" r="8.493" fill="#880d85" stroke="#880d85" stroke-linejoin="miter" stroke-miterlimit="2" stroke-width="0" transform="translate(252.403849 -124.832972)"/><circle cx="107.705" cy="83.214" r="8.493" fill="#880c85" stroke="#880c85" stroke-linejoin="miter" stroke-miterlimit="2" stroke-width="0" transform="translate(252.403849 -124.832972)"/><circle cx="108.117" cy="83.214" r="8.493" fill="#870b84" stroke="#870b84" stroke-linejoin="miter" stroke-miterlimit="2" stroke-width="0" transform="translate(252.403849 -124.832972)"/><circle cx="108.528" cy="83.214" r="8.493" fill="#870b84" stroke="#870b84" stroke-linejoin="miter" stroke-miterlimit="2" stroke-width="0" transform="translate(252.403849 -124.832972)"/><circle cx="108.939" cy="83.214" r="8.493" fill="#860a84" stroke="#860a84" stroke-linejoin="miter" stroke-miterlimit="2" stroke-width="0" transform="translate(252.403849 -124.832972)"/><circle cx="109.351" cy="83.214" r="8.493" fill="#860984" stroke="#860984" stroke-linejoin="miter" stroke-miterlimit="2" stroke-width="0" transform="translate(252.403849 -124.832972)"/><circle cx="109.762" cy="83.214" r="8.493" fill="#850883" stroke="#850883" stroke-linejoin="miter" stroke-miterlimit="2" stroke-width="0" transform="translate(252.403849 -124.832972)"/><circle cx="110.174" cy="83.214" r="8.493" fill="#850883" stroke="#850883" stroke-linejoin="miter" stroke-miterlimit="2" stroke-width="0" transform="translate(252.403849 -124.832972)"/><circle cx="110.585" cy="83.214" r="8.493" fill="#840783" stroke="#840783" stroke-linejoin="miter" stroke-miterlimit="2" stroke-width="0" transform="translate(252.403849 -124.832972)"/><circle cx="110.996" cy="83.214" r="8.493" fill="#840682" stroke="#840682" stroke-linejoin="miter" stroke-miterlimit="2" stroke-width="0" transform="translate(252.403849 -124.832972)"/><circle cx="111.408" cy="83.214" r="8.493" fill="#830582" stroke="#830582" stroke-linejoin="miter" stroke-miterlimit="2" stroke-width="0" transform="translate(252.403849 -124.832972)"/><circle cx="111.819" cy="83.214" r="8.493" fill="#830582" stroke="#830582" stroke-linejoin="miter" stroke-miterlimit="2" stroke-width="0" transform="translate(252.403849 -124.832972)"/><circle cx="112.23" cy="83.214" r="8.493" fill="#820481" stroke="#820481" stroke-linejoin="miter" stroke-miterlimit="2" stroke-width="0" transform="translate(252.403849 -124.832972)"/><circle cx="112.642" cy="83.214" r="8.493" fill="#820381" stroke="#820381" stroke-linejoin="miter" stroke-miterlimit="2" stroke-width="0" transform="translate(252.403849 -124.832972)"/><circle cx="113.053" cy="83.214" r="8.493" fill="#810281" stroke="#810281" stroke-linejoin="miter" stroke-miterlimit="2" stroke-width="0" transform="translate(252.403849 -124.832972)"/><circle cx="113.464" cy="83.214" r="8.493" fill="#810281" stroke="#810281" stroke-linejoin="miter" stroke-miterlimit="2" stroke-width="0" transform="translate(252.403849 -124.832972)"/><circle cx="113.876" cy="83.214" r="8.493" fill="#800180" stroke="#800180" stroke-linejoin="miter" stroke-miterlimit="2" stroke-width="0" transform="translate(252.403849 -124.832972)"/><circle cx="114.287" cy="83.214" r="2.291" fill="purple" stroke="purple" stroke-linejoin="miter" stroke-miterlimit="2" stroke-width="0" transform="translate(252.403849 -124.832972)"/></g></g><image id="icon" x="0" y="0" style="display:none"/></g></g></svg>